# xmcd
#
# Track frame offsets:
#	150
#	13109
#	23609
#	36488
#	51142
#	66264
#	79157
#	89209
#	101616
#	114489
#	127704
#	140586
#	150706
#	163611
#	178248
#	192970
#	207038
#	221058
#
# Disc length: 3126 seconds
#
# Revision: 1
# Processed by: cddbd v1.5.2PL0 Copyright (c) Steve Scherf et al.
# Submitted via: dBpowerAMP V4.0
#
DISCID=000c3412
DTITLE=Floyd Jones - Chronological 1948-1953, (The)
DYEAR=1900
DGENRE=
TTITLE0=Stockyard Blues
TTITLE1=Keep What You Got
TTITLE2=Big World
TTITLE3=Dark Road
TTITLE4=Dark Road
TTITLE5=Big World
TTITLE6=Overseas
TTITLE7=Playhouse
TTITLE8=You Can't Live Long
TTITLE9=Early Morning
TTITLE10=I Lost A Good Woman
TTITLE11=Skinny Mama
TTITLE12=Rising Wind
TTITLE13=9 on the Road Again
TTITLE14=Schooldays on My Mind
TTITLE15=Ain't Times Hard
TTITLE16=Floyd's Blues
TTITLE17=Anu Old Lonesome Day
EXTD=
EXTT0=
EXTT1=
EXTT2=
EXTT3=
EXTT4=
EXTT5=
EXTT6=
EXTT7=
EXTT8=
EXTT9=
EXTT10=
EXTT11=
EXTT12=
EXTT13=
EXTT14=
EXTT15=
EXTT16=
EXTT17=
PLAYORDER=
